<svg xmlns="http://www.w3.org/2000/svg" width="1258.032" height="532.225"><path fill="none" stroke="#008c95" stroke-width="2" d="m49.311 1.155 48.311 27.89v55.781l-48.311 27.89L1 84.826V29.045Zm48.311 83.671 48.3 27.89v55.781l-48.3 27.89-48.311-27.89v-55.781Zm0 167.342-48.311 27.89Zm0 0 48.3 27.89v55.777l-48.3 27.89-48.311-27.89v-55.777Zm48.3-251.012 48.311 27.89v55.78l-48.311 27.89-48.3-27.89V29.045Zm48.311 251.012 48.311 27.89v55.777l-48.311 27.89-48.309-27.89v-55.777Zm0 167.342 48.311 27.89v55.781l-48.311 27.89-48.311-27.89v-55.782ZM242.546 1.155l48.311 27.89v55.781l-48.311 27.89-48.311-27.89V29.045Zm0 167.342 48.311 27.89v55.781l-48.311 27.89-48.311-27.89v-55.781Zm48.311 83.671 48.3 27.89v55.777l-48.3 27.89-48.311-27.89v-55.777Zm96.613 167.341 48.311 27.89v55.781l-48.311 27.89-48.311-27.89v-55.781Zm48.311-83.674 48.311 27.89v55.781l-48.311 27.89-48.311-27.89v-55.777Zm96.609 111.564Zm0-446.244 48.311 27.89v55.781l-48.311 27.89-48.3-27.89V29.045Zm0 167.342 48.311 27.89v55.781l-48.311 27.89-48.3-27.89v-55.781Zm48.311 83.671 48.311 27.89v55.777l-48.311 27.89-48.311-27.89v-55.777Zm0 167.342 48.311 27.89v55.781l-48.311 27.89-48.311-27.891v-55.781ZM629.016 1.155l48.311 27.89v55.781l-48.311 27.89-31.669-18.281-16.642-9.607V29.045Zm96.614 111.561Zm-48.3 306.793 48.3 27.89v55.781l-48.3 27.89-48.311-27.89v-55.781Zm96.611-334.683 48.311 27.89v55.781l-17.492 10.1-30.819 17.792-48.311-27.89v-55.783Zm0 167.342 48.311 27.89v55.777l-48.311 27.89-48.311-27.89v-55.777Zm96.622 167.342 48.3 27.89v55.781l-48.3 27.89-48.311-27.89v-55.782Zm48.3-418.354 48.311 27.89v55.78l-48.311 27.89-48.3-27.89V29.045Zm48.311 83.671 48.316 27.889v55.781l-48.311 27.89-48.311-27.89v-55.781Zm-48.311 83.671 48.311 27.89v55.781l-48.311 27.89-48.3-27.89v-55.782Zm48.311 83.671 48.316 27.889v55.777l-48.311 27.89-48.314-27.89v-55.777Zm0 167.342 48.316 27.888v55.781l-48.311 27.89-48.311-27.89v-55.781Zm48.316-251.014 48.311 27.89v55.781l-48.311 27.89-48.311-27.89v-55.781Zm0 167.338 48.311 27.89v55.781l-48.311 27.893-48.311-27.89v-55.78Zm144.921-251.009 48.311 27.89v55.781l-48.311 27.89-48.311-27.89v-55.781Zm-48.311 83.671 48.311 27.89v55.781l-48.311 27.89-48.3-27.89v-55.781Zm0 167.342 48.311 27.89v55.781L1112.1 447.4l-48.3-27.89v-55.781Zm96.621-167.342 48.311 27.89v55.781l-48.311 27.89-48.311-27.89v-55.781Z" data-name="Path 1068"/></svg>