<?xml version="1.0" encoding="UTF-8"?>
<svg id="Layer_1" data-name="Layer 1" xmlns="http://www.w3.org/2000/svg" viewBox="0 0 236.26 81">
  <defs>
    <style>
      .cls-1 {
        fill: #008c95;
      }
    </style>
  </defs>
  <path class="cls-1" d="m232.47,0c-2.09,0-3.78,1.69-3.78,3.78,0,.33.06.65.14.95l-71.82,42.76c-.68-.64-1.58-1.03-2.59-1.03s-1.89.39-2.56,1.02l-45.64-27.43c.08-.3.13-.62.13-.95,0-2.09-1.69-3.78-3.78-3.78s-3.78,1.69-3.78,3.78c0,.32.05.63.13.93L0,79.19l1.09,1.82L99.98,21.85c.68.64,1.58,1.03,2.58,1.03s1.89-.39,2.56-1.02l45.64,27.43c-.08.31-.14.62-.14.95,0,2.09,1.69,3.78,3.78,3.78s3.78-1.69,3.78-3.78c0-.32-.05-.63-.13-.92L229.91,6.55c.67.62,1.57,1.01,2.56,1.01,2.09,0,3.78-1.69,3.78-3.78s-1.69-3.78-3.78-3.78Z"/>
</svg>