<?xml version="1.0" encoding="UTF-8"?>
<svg id="Layer_1" data-name="Layer 1" xmlns="http://www.w3.org/2000/svg" viewBox="0 0 242.45 250.63">
  <defs>
    <style>
      .cls-1 {
        fill: none;
        stroke: #ec2027;
        stroke-linecap: round;
        stroke-miterlimit: 10;
        stroke-width: 6px;
      }
    </style>
  </defs>
  <path class="cls-1" d="m119.15,151.5c-14.08-2.02-24.9-14.13-24.9-28.76,0-16.05,13.01-29.06,29.06-29.06,11.03,0,20.63,6.15,25.55,15.21"/>
  <path class="cls-1" d="m132.75,86.25c18.1,4.84,30.36,22.38,28.07,41.53-2.51,20.99-21.57,35.98-42.56,33.46-14.43-1.73-26.03-11.27-31.04-23.89"/>
  <path class="cls-1" d="m171.58,130.77c-3.92,23.73-24.78,41.58-49.53,41.05-27.13-.58-48.66-23.04-48.08-50.18.4-18.65,11.14-34.66,26.63-42.65"/>
  <path class="cls-1" d="m132.53,182.59c-29.36,4.31-58.18-13.49-66.86-42.77-9.52-32.1,8.79-65.84,40.89-75.36,22.07-6.54,44.91.06,60.13,15.26"/>
  <path class="cls-1" d="m55.96,145.54c-11.02-33.35,3.86-70.6,36.23-86.69,35.49-17.65,78.57-3.18,96.22,32.31,12.13,24.4,9.09,52.39-5.53,73.23"/>
  <path class="cls-1" d="m148.57,45.1c38.43,11.76,63.37,50.28,57,91.15-6.99,44.81-48.97,75.47-93.78,68.49-30.81-4.8-54.93-26.15-64.72-53.58"/>
  <path class="cls-1" d="m205.27,168.87c-21.49,39.63-69.4,58.48-112.92,42.37-47.72-17.66-72.08-70.66-54.42-118.37,12.14-32.8,40.99-54.57,73.33-59.23"/>
  <path class="cls-1" d="m33.04,171.84c-23.22-45.05-10.41-101.48,32.08-131.71,46.6-33.15,111.25-22.25,144.41,24.34,22.79,32.04,24.76,72.61,8.63,105.61"/>
  <path class="cls-1" d="m73.46,23.48C122.4-2.43,184.21,10.89,217.76,56.96c36.78,50.52,25.65,121.3-24.87,158.08-34.73,25.29-79.04,27.93-115.29,10.69"/>
  <path class="cls-1" d="m234.45,182.62c-28.31,53.1-92.08,78.71-150.32,57.62C20.28,217.12-12.74,146.61,10.38,82.76,26.28,38.86,64.57,9.53,107.7,3"/>
</svg>