<?xml version="1.0" encoding="UTF-8"?>
<svg id="Layer_1" data-name="Layer 1" xmlns="http://www.w3.org/2000/svg" viewBox="0 0 192.75 104.69">
  <defs>
    <style>
      .cls-1 {
        fill: none;
        stroke: #76cbf0;
        stroke-linecap: round;
        stroke-linejoin: round;
        stroke-width: .5px;
      }
    </style>
  </defs>
  <path class="cls-1" d="m.25,21.09L12.41.25l12.16,20.84H.25Z"/>
  <path class="cls-1" d="m24.57,21.09L36.73.25l12.16,20.84h-24.32Z"/>
  <path class="cls-1" d="m36.73.25l-12.16,20.84L12.41.25h24.32Z"/>
  <path class="cls-1" d="m82.24,83.06l-12.16,20.84-12.16-20.84h24.32Z"/>
  <path class="cls-1" d="m57.92,83.06l12.16-20.84,12.16,20.84h-24.32Z"/>
  <path class="cls-1" d="m82.24,83.06l12.16-20.84,12.16,20.84h-24.32Z"/>
  <path class="cls-1" d="m9.28,83.06l12.16-20.84,12.16,20.84H9.28Z"/>
  <path class="cls-1" d="m33.6,83.06l12.16-20.84,12.16,20.84h-24.32Z"/>
  <path class="cls-1" d="m94.4,62.22l-12.16,20.84-12.16-20.84h24.32Z"/>
  <path class="cls-1" d="m106.56,83.06l-12.16,20.84-12.16-20.84h24.32Z"/>
  <path class="cls-1" d="m33.6,83.06l-12.16,20.84-12.16-20.84h24.32Z"/>
  <path class="cls-1" d="m57.92,83.06l-12.16,20.84-12.16-20.84h24.32Z"/>
  <path class="cls-1" d="m59.2,41.92l12.16-20.84,12.16,20.84h-24.32Z"/>
  <path class="cls-1" d="m95.68,21.09l-12.16,20.84-12.16-20.84h24.32Z"/>
  <path class="cls-1" d="m71.36,21.09L83.52.25l12.16,20.84h-24.32Z"/>
  <path class="cls-1" d="m95.68,21.09L107.84.25l12.16,20.84h-24.32Z"/>
  <path class="cls-1" d="m107.84.25l-12.16,20.84L83.52.25h24.32Z"/>
  <path class="cls-1" d="m120,21.09l-12.16,20.84-12.16-20.84h24.32Z"/>
  <path class="cls-1" d="m143.86,21.09l-12.16,20.84-12.16-20.84h24.32Z"/>
  <path class="cls-1" d="m168.18,21.09l-12.16,20.84-12.16-20.84h24.32Z"/>
  <path class="cls-1" d="m120,21.09L132.16.25l12.16,20.84h-24.32Z"/>
  <path class="cls-1" d="m132.16.25l-12.16,20.84L107.84.25h24.32Z"/>
  <path class="cls-1" d="m131.7,83.6l12.16-20.84,12.16,20.84h-24.32Z"/>
  <path class="cls-1" d="m168.18,62.76l-12.16,20.84-12.16-20.84h24.32Z"/>
  <path class="cls-1" d="m143.86,62.76l12.16-20.84,12.16,20.84h-24.32Z"/>
  <path class="cls-1" d="m192.5,62.76l-12.16,20.84-12.16-20.84h24.32Z"/>
  <path class="cls-1" d="m143.86,62.76l-12.16,20.84-12.16-20.84h24.32Z"/>
  <path class="cls-1" d="m143.86,104.44l12.16-20.84,12.16,20.84h-24.32Z"/>
  <path class="cls-1" d="m156.02,83.6l-12.16,20.84-12.16-20.84h24.32Z"/>
  <path class="cls-1" d="m144.32,21.09L156.48.25l12.16,20.84h-24.32Z"/>
  <path class="cls-1" d="m156.48.25l-12.16,20.84L132.16.25h24.32Z"/>
  <path class="cls-1" d="m12.41,41.92l12.16-20.84,12.16,20.84H12.41Z"/>
  <path class="cls-1" d="m24.57,21.09l-12.16,20.84L.25,21.09h24.32Z"/>
</svg>